HIERARCHY
ROOT Hips
{
  OFFSET -7.948 22.948 -257.812
  CHANNELS 6 Xposition Yposition Zposition Zrotation Xrotation Yrotation
  JOINT LeftUpLeg
  {
    OFFSET 7.325 -6.513 1.873
    CHANNELS 6 Xposition Yposition Zposition Zrotation Xrotation Yrotation
    JOINT LeftLeg
    {
      OFFSET -0.000 -47.124 0.000
      CHANNELS 6 Xposition Yposition Zposition Zrotation Xrotation Yrotation
      JOINT LeftFoot
      {
        OFFSET -0.000 -39.104 -0.000
        CHANNELS 6 Xposition Yposition Zposition Zrotation Xrotation Yrotation
        End Site
        {
          OFFSET 0.000 -8.155 4.709
        }
      }
    }
  }
  JOINT RightUpLeg
  {
    OFFSET -7.226 -6.526 1.999
    CHANNELS 6 Xposition Yposition Zposition Zrotation Xrotation Yrotation
    JOINT RightLeg
    {
      OFFSET 0.000 -46.175 0.000
      CHANNELS 6 Xposition Yposition Zposition Zrotation Xrotation Yrotation
      JOINT RightFoot
      {
        OFFSET 0.000 -41.294 -0.000
        CHANNELS 6 Xposition Yposition Zposition Zrotation Xrotation Yrotation
        End Site
        {
          OFFSET 0.000 -7.974 4.604
        }
      }
    }
  }
  JOINT Spine
  {
    OFFSET 0.000 6.388 -6.388
    CHANNELS 6 Xposition Yposition Zposition Zrotation Xrotation Yrotation
    JOINT LeftShoulder
    {
      OFFSET -0.000 32.843 0.000
      CHANNELS 6 Xposition Yposition Zposition Zrotation Xrotation Yrotation
      JOINT LeftArm
      {
        OFFSET 15.436 0.000 -0.000
        CHANNELS 6 Xposition Yposition Zposition Zrotation Xrotation Yrotation
        JOINT LeftForeArm
        {
          OFFSET 21.710 0.000 0.000
          CHANNELS 6 Xposition Yposition Zposition Zrotation Xrotation Yrotation
          JOINT LeftHand
          {
            OFFSET 22.550 -0.000 -0.000
            CHANNELS 6 Xposition Yposition Zposition Zrotation Xrotation Yrotation
            JOINT LeftHandThumb1
            {
            OFFSET 4.970 -0.620 3.390
            CHANNELS 6 Xposition Yposition Zposition Zrotation Xrotation Yrotation
              JOINT LeftHandThumb2
              {
              OFFSET 2.150 -0.000 0.000
              CHANNELS 6 Xposition Yposition Zposition Zrotation Xrotation Yrotation
                JOINT LeftHandThumb3
                {
                OFFSET 2.200 -0.000 0.000
                CHANNELS 6 Xposition Yposition Zposition Zrotation Xrotation Yrotation
                  JOINT LeftHandThumb4
                  {
                  OFFSET 1.700 -0.000 0.000
                  CHANNELS 6 Xposition Yposition Zposition Zrotation Xrotation Yrotation
                  }
                }
              }
            }
            JOINT LeftHandIndex1
            {
            OFFSET 8.730 0.680 2.070
            CHANNELS 6 Xposition Yposition Zposition Zrotation Xrotation Yrotation
              JOINT LeftHandIndex2
              {
              OFFSET 2.670 -0.000 0.000
              CHANNELS 6 Xposition Yposition Zposition Zrotation Xrotation Yrotation
                JOINT LeftHandIndex3
                {
                OFFSET 2.130 -0.000 0.000
                CHANNELS 6 Xposition Yposition Zposition Zrotation Xrotation Yrotation
                  JOINT LeftHandIndex4
                  {
                  OFFSET 1.800 -0.000 0.000
                  CHANNELS 6 Xposition Yposition Zposition Zrotation Xrotation Yrotation
                  }
                }
              }
            }
            JOINT LeftHandMiddle1
            {
            OFFSET 9.220 0.670 0.550
            CHANNELS 6 Xposition Yposition Zposition Zrotation Xrotation Yrotation
              JOINT LeftHandMiddle2
              {
              OFFSET 2.660 -0.000 0.000
              CHANNELS 6 Xposition Yposition Zposition Zrotation Xrotation Yrotation
                JOINT LeftHandMiddle3
                {
                OFFSET 2.280 -0.000 0.000
                CHANNELS 6 Xposition Yposition Zposition Zrotation Xrotation Yrotation
                  JOINT LeftHandMiddle4
                  {
                  OFFSET 1.500 -0.000 0.000
                  CHANNELS 6 Xposition Yposition Zposition Zrotation Xrotation Yrotation
                  }
                }
              }
            }
            JOINT LeftHandRing1
            {
            OFFSET 9.250 0.670 -1.130
            CHANNELS 6 Xposition Yposition Zposition Zrotation Xrotation Yrotation
              JOINT LeftHandRing2
              {
              OFFSET 2.470 -0.000 0.000
              CHANNELS 6 Xposition Yposition Zposition Zrotation Xrotation Yrotation
                JOINT LeftHandRing3
                {
                OFFSET 2.210 -0.000 0.000
                CHANNELS 6 Xposition Yposition Zposition Zrotation Xrotation Yrotation
                  JOINT LeftHandRing4
                  {
                  OFFSET 1.800 -0.000 0.000
                  CHANNELS 6 Xposition Yposition Zposition Zrotation Xrotation Yrotation
                  }
                }
              }
            }
            JOINT LeftHandPinky1
            {
            OFFSET 9.350 0.660 -2.720
            CHANNELS 6 Xposition Yposition Zposition Zrotation Xrotation Yrotation
              JOINT LeftHandPinky2
              {
              OFFSET 1.630 -0.000 0.000
              CHANNELS 6 Xposition Yposition Zposition Zrotation Xrotation Yrotation
                JOINT LeftHandPinky3
                {
                OFFSET 1.710 -0.000 0.000
                CHANNELS 6 Xposition Yposition Zposition Zrotation Xrotation Yrotation
                  JOINT LeftHandPinky4
                  {
                  OFFSET 1.800 -0.000 0.000
                  CHANNELS 6 Xposition Yposition Zposition Zrotation Xrotation Yrotation
                  }
                }
              }
            }
          }
        }
      }
    }
    JOINT RightShoulder
    {
      OFFSET -0.000 32.843 0.000
      CHANNELS 6 Xposition Yposition Zposition Zrotation Xrotation Yrotation
      JOINT RightArm
      {
        OFFSET -15.602 0.000 -0.000
        CHANNELS 6 Xposition Yposition Zposition Zrotation Xrotation Yrotation
        JOINT RightForeArm
        {
          OFFSET -21.825 0.000 0.000
          CHANNELS 6 Xposition Yposition Zposition Zrotation Xrotation Yrotation
          JOINT RightHand
          {
            OFFSET -22.802 0.000 -0.000
            CHANNELS 6 Xposition Yposition Zposition Zrotation Xrotation Yrotation
            JOINT RightHandThumb1
            {
            OFFSET -4.970 -0.620 3.390
            CHANNELS 6 Xposition Yposition Zposition Zrotation Xrotation Yrotation
              JOINT RightHandThumb2
              {
              OFFSET -2.150 0.000 0.000
              CHANNELS 6 Xposition Yposition Zposition Zrotation Xrotation Yrotation
                JOINT RightHandThumb3
                {
                OFFSET -2.200 0.000 0.000
                CHANNELS 6 Xposition Yposition Zposition Zrotation Xrotation Yrotation
                  JOINT RightHandThumb4
                  {
                  OFFSET -1.700 0.000 0.000
                  CHANNELS 6 Xposition Yposition Zposition Zrotation Xrotation Yrotation
                  }
                }
              }
            }
            JOINT RightHandIndex1
            {
            OFFSET -8.730 0.680 2.070
            CHANNELS 6 Xposition Yposition Zposition Zrotation Xrotation Yrotation
              JOINT RightHandIndex2
              {
              OFFSET -2.670 0.000 0.000
              CHANNELS 6 Xposition Yposition Zposition Zrotation Xrotation Yrotation
                JOINT RightHandIndex3
                {
                OFFSET -2.130 0.000 0.000
                CHANNELS 6 Xposition Yposition Zposition Zrotation Xrotation Yrotation
                  JOINT RightHandIndex4
                  {
                  OFFSET -1.800 0.000 0.000
                  CHANNELS 6 Xposition Yposition Zposition Zrotation Xrotation Yrotation
                  }
                }
              }
            }
            JOINT RightHandMiddle1
            {
            OFFSET -9.220 0.670 0.550
            CHANNELS 6 Xposition Yposition Zposition Zrotation Xrotation Yrotation
              JOINT RightHandMiddle2
              {
              OFFSET -2.660 0.000 0.000
              CHANNELS 6 Xposition Yposition Zposition Zrotation Xrotation Yrotation
                JOINT RightHandMiddle3
                {
                OFFSET -2.280 0.000 0.000
                CHANNELS 6 Xposition Yposition Zposition Zrotation Xrotation Yrotation
                  JOINT RightHandMiddle4
                  {
                  OFFSET -1.500 0.000 0.000
                  CHANNELS 6 Xposition Yposition Zposition Zrotation Xrotation Yrotation
                  }
                }
              }
            }
            JOINT RightHandRing1
            {
            OFFSET -9.250 0.670 -1.130
            CHANNELS 6 Xposition Yposition Zposition Zrotation Xrotation Yrotation
              JOINT RightHandRing2
              {
              OFFSET -2.470 0.000 0.000
              CHANNELS 6 Xposition Yposition Zposition Zrotation Xrotation Yrotation
                JOINT RightHandRing3
                {
                OFFSET -2.210 0.000 0.000
                CHANNELS 6 Xposition Yposition Zposition Zrotation Xrotation Yrotation
                  JOINT RightHandRing4
                  {
                  OFFSET -1.800 0.000 0.000
                  CHANNELS 6 Xposition Yposition Zposition Zrotation Xrotation Yrotation
                  }
                }
              }
            }
            JOINT RightHandPinky1
            {
            OFFSET -9.350 0.660 -2.720
            CHANNELS 6 Xposition Yposition Zposition Zrotation Xrotation Yrotation
              JOINT RightHandPinky2
              {
              OFFSET -1.630 0.000 0.000
              CHANNELS 6 Xposition Yposition Zposition Zrotation Xrotation Yrotation
                JOINT RightHandPinky3
                {
                OFFSET -1.710 0.000 0.000
                CHANNELS 6 Xposition Yposition Zposition Zrotation Xrotation Yrotation
                  JOINT RightHandPinky4
                  {
                  OFFSET -1.800 0.000 0.000
                  CHANNELS 6 Xposition Yposition Zposition Zrotation Xrotation Yrotation
                  }
                }
              }
            }
          }
        }
      }
    }
    JOINT Neck
    {
      OFFSET -0.000 32.843 0.000
      CHANNELS 6 Xposition Yposition Zposition Zrotation Xrotation Yrotation
      JOINT Head
      {
        OFFSET -0.000 25.947 -0.000
        CHANNELS 6 Xposition Yposition Zposition Zrotation Xrotation Yrotation
        End Site
        {
          OFFSET -0.000 0.104 -0.000
        }
      }
    }
  }
}
MOTION
Frames:	5
Frame Time:	0.0333333
-2.43458 24.4343 -241.436 1.46572 4.2405 -3.38065 7.43496 -6.50037 1.47209 0.947781 7.70658 2.40784 1.58325e-06 -45.6841 2.38419e-05 -6.01037 -8.00457 -0.83998 -7.45058e-07 -40.1374 -4.76837e-05 8.50059 -1.18071 5.09803 -7.2665 -6.98197 2.06399 -8.63133 -7.13494 4.37017 7.82311e-06 -46.1445 -2.38419e-05 -1.7104 15.0114 0 -7.45058e-07 -41.5655 -2.38419e-05 -10.5647 -25.4526 -9.64119 -2.98023e-06 6.26059 -6.26059 0.651955 -6.28551 -0.754606 5.96046e-06 32.8433 4.76837e-05 -11.7037 1.08856e-05 7.3365 15.5461 0 0 -47.4723 28.414 -7.52156 22.24 1.19209e-05 4.76837e-05 -6.02498e-07 -3.17205e-06 -111.509 22.1932 -2.38419e-05 2.38419e-05 -5.89012 0.0619516 -7.56841 0.0062 0.0497 0.0339 0 0 0 0 0.0215 0 0 0 0 0 0.022 0 0 0 0 0 0.017 0 0 0 0 -0.0068 0.0873 0.0207 0 0 0 0 0.0267 0 0 0 0 0 0.0213 0 0 0 0 0 0.018 0 0 0 0 -0.0067 0.0922 0.0055 0 0 0 0 0.0266 0 0 0 0 0 0.0228 0 0 0 0 0 0.015 0 0 0 0 -0.0067 0.0925 -0.0113 0 0 0 0 0.0247 0 0 0 0 0 0.0221 0 0 0 0 0 0.018 0 0 0 0 -0.0066 0.0935 -0.0272 0 0 0 0 0.0163 0 0 0 0 0 0.0171 0 0 0 0 0 0.018 0 0 0 0 5.96046e-06 32.8433 4.76837e-05 7.92945 -2.13443e-06 -7.03656 -16.2053 1.78814e-05 -2.38419e-05 68.3629 38.7913 -8.5881 -21.1038 -2.98023e-05 -2.38419e-05 -5.91558e-06 6.83019e-06 75.4319 -26.1486 1.78814e-05 2.98023e-05 -14.0854 0.321787 -18.2853 -0.0062 0.0497 0.0339 0 0 0 0 0.0215 0 0 0 0 0 0.022 0 0 0 0 0 0.017 0 0 0 0 0.0068 0.0873 0.0207 0 0 0 0 0.0267 0 0 0 0 0 0.0213 0 0 0 0 0 0.018 0 0 0 0 0.0067 0.0922 0.0055 0 0 0 0 0.0266 0 0 0 0 0 0.0228 0 0 0 0 0 0.015 0 0 0 0 0.0067 0.0925 -0.0113 0 0 0 0 0.0247 0 0 0 0 0 0.0221 0 0 0 0 0 0.018 0 0 0 0 0.0066 0.0935 -0.0272 0 0 0 0 0.0163 0 0 0 0 0 0.0171 0 0 0 0 0 0.018 0 0 0 0 5.96046e-06 32.8433 4.76837e-05 -1.66599 15.4333 0.443465 -7.45058e-06 25.7555 7.15256e-05 9.76504e-06 -1.02453e-05 8.53774e-07 
-2.06833 24.4067 -241.535 1.60307 4.36641 -3.41716 7.45024 -6.50687 1.47624 0.530535 7.5365 2.42614 1.86265e-07 -45.7039 0 -7.62682 -8.4858 -1.13199 -3.72529e-06 -40.2268 0 8.71182 -1.08733 5.2094 -7.27917 -6.97808 2.06161 -8.50543 -7.62615 4.23698 5.96046e-06 -46.1784 4.76837e-05 -1.5336 15.2734 1.10629e-07 -2.6077e-06 -41.503 -2.38419e-05 -12.5618 -21.7698 -10.6407 2.98023e-06 6.26068 -6.26066 0.638735 -6.30777 -0.76419 -2.98023e-06 32.8433 0 -11.8866 1.2273e-05 7.15621 15.5906 -5.96046e-06 9.53674e-05 -47.5132 28.0322 -7.31786 22.2668 -2.98023e-05 -2.38419e-05 -1.42532e-05 -3.14747e-06 -111.334 22.167 0 2.38419e-05 -6.30011 0.0597356 -7.57305 0.0062 0.0497 0.0339 0 0 0 0 0.0215 0 0 0 0 0 0.022 0 0 0 0 0 0.017 0 0 0 0 -0.0068 0.0873 0.0207 0 0 0 0 0.0267 0 0 0 0 0 0.0213 0 0 0 0 0 0.018 0 0 0 0 -0.0067 0.0922 0.0055 0 0 0 0 0.0266 0 0 0 0 0 0.0228 0 0 0 0 0 0.015 0 0 0 0 -0.0067 0.0925 -0.0113 0 0 0 0 0.0247 0 0 0 0 0 0.0221 0 0 0 0 0 0.018 0 0 0 0 -0.0066 0.0935 -0.0272 0 0 0 0 0.0163 0 0 0 0 0 0.0171 0 0 0 0 0 0.018 0 0 0 0 -2.98023e-06 32.8433 0 8.15712 -2.56132e-06 -6.89706 -16.1735 1.78814e-05 2.38419e-05 68.1035 38.7886 -8.8091 -21.0768 5.96046e-06 7.15256e-05 0 0 75.7685 -26.1482 -1.78814e-05 -1.19209e-05 -14.8917 0.30848 -19.5123 -0.0062 0.0497 0.0339 0 0 0 0 0.0215 0 0 0 0 0 0.022 0 0 0 0 0 0.017 0 0 0 0 0.0068 0.0873 0.0207 0 0 0 0 0.0267 0 0 0 0 0 0.0213 0 0 0 0 0 0.018 0 0 0 0 0.0067 0.0922 0.0055 0 0 0 0 0.0266 0 0 0 0 0 0.0228 0 0 0 0 0 0.015 0 0 0 0 0.0067 0.0925 -0.0113 0 0 0 0 0.0247 0 0 0 0 0 0.0221 0 0 0 0 0 0.018 0 0 0 0 0.0066 0.0935 -0.0272 0 0 0 0 0.0163 0 0 0 0 0 0.0171 0 0 0 0 0 0.018 0 0 0 0 -2.98023e-06 32.8433 0 -1.58409 15.3772 0.420157 -5.96046e-06 25.7932 0 1.05654e-05 -1.19528e-05 0 
-2.06833 24.4067 -241.535 1.60307 4.36641 -3.41716 7.45024 -6.50687 1.47624 0.530535 7.5365 2.42614 1.86265e-07 -45.7039 0 -7.62682 -8.4858 -1.13199 -3.72529e-06 -40.2268 0 8.71182 -1.08733 5.2094 -7.27917 -6.97808 2.06161 -8.50543 -7.62615 4.23698 5.96046e-06 -46.1784 4.76837e-05 -1.5336 15.2734 1.10629e-07 -2.6077e-06 -41.503 -2.38419e-05 -12.5618 -21.7698 -10.6407 2.98023e-06 6.26068 -6.26066 0.638735 -6.30777 -0.76419 -2.98023e-06 32.8433 0 -11.8866 1.2273e-05 7.15621 15.5906 -5.96046e-06 9.53674e-05 -47.5132 28.0322 -7.31786 22.2668 -2.98023e-05 -2.38419e-05 -1.42532e-05 -3.14747e-06 -111.334 22.167 0 2.38419e-05 -6.30011 0.0597356 -7.57305 0.0062 0.0497 0.0339 0 0 0 0 0.0215 0 0 0 0 0 0.022 0 0 0 0 0 0.017 0 0 0 0 -0.0068 0.0873 0.0207 0 0 0 0 0.0267 0 0 0 0 0 0.0213 0 0 0 0 0 0.018 0 0 0 0 -0.0067 0.0922 0.0055 0 0 0 0 0.0266 0 0 0 0 0 0.0228 0 0 0 0 0 0.015 0 0 0 0 -0.0067 0.0925 -0.0113 0 0 0 0 0.0247 0 0 0 0 0 0.0221 0 0 0 0 0 0.018 0 0 0 0 -0.0066 0.0935 -0.0272 0 0 0 0 0.0163 0 0 0 0 0 0.0171 0 0 0 0 0 0.018 0 0 0 0 -2.98023e-06 32.8433 0 8.15712 -2.56132e-06 -6.89706 -16.1735 1.78814e-05 2.38419e-05 68.1035 38.7886 -8.8091 -21.0768 5.96046e-06 7.15256e-05 0 0 75.7685 -26.1482 -1.78814e-05 -1.19209e-05 -14.8917 0.30848 -19.5123 -0.0062 0.0497 0.0339 0 0 0 0 0.0215 0 0 0 0 0 0.022 0 0 0 0 0 0.017 0 0 0 0 0.0068 0.0873 0.0207 0 0 0 0 0.0267 0 0 0 0 0 0.0213 0 0 0 0 0 0.018 0 0 0 0 0.0067 0.0922 0.0055 0 0 0 0 0.0266 0 0 0 0 0 0.0228 0 0 0 0 0 0.015 0 0 0 0 0.0067 0.0925 -0.0113 0 0 0 0 0.0247 0 0 0 0 0 0.0221 0 0 0 0 0 0.018 0 0 0 0 0.0066 0.0935 -0.0272 0 0 0 0 0.0163 0 0 0 0 0 0.0171 0 0 0 0 0 0.018 0 0 0 0 -2.98023e-06 32.8433 0 -1.58409 15.3772 0.420157 -5.96046e-06 25.7932 0 1.05654e-05 -1.19528e-05 0 
-1.70399 24.3757 -241.65 1.69078 4.48336 -3.49128 7.4467 -6.50424 1.47607 0.188176 7.38837 2.48225 1.67638e-06 -45.8061 4.76837e-05 -8.84882 -8.9587 -1.38875 -2.23517e-06 -40.2645 2.38419e-05 10.5553 -0.559381 6.05882 -7.27219 -6.97357 2.06494 -8.30907 -8.11284 4.07844 2.6077e-06 -46.2236 0 -1.11153 15.5368 7.75386e-07 2.6077e-06 -41.4537 -2.38419e-05 -15.2297 -17.4072 -11.7441 -1.49012e-06 6.26249 -6.26249 0.639982 -6.3293 -0.764679 -1.49012e-06 32.8433 7.15256e-05 -12.0623 9.39151e-06 6.90056 15.5985 1.19209e-05 -2.38419e-05 -47.4992 27.7753 -7.03011 22.2767 5.96046e-06 0 1.21324e-05 -8.11483e-06 -111.328 22.1932 5.96046e-06 -3.57628e-05 -6.98408 0.0619666 -7.98538 0.0062 0.0497 0.0339 0 0 0 0 0.0215 0 0 0 0 0 0.022 0 0 0 0 0 0.017 0 0 0 0 -0.0068 0.0873 0.0207 0 0 0 0 0.0267 0 0 0 0 0 0.0213 0 0 0 0 0 0.018 0 0 0 0 -0.0067 0.0922 0.0055 0 0 0 0 0.0266 0 0 0 0 0 0.0228 0 0 0 0 0 0.015 0 0 0 0 -0.0067 0.0925 -0.0113 0 0 0 0 0.0247 0 0 0 0 0 0.0221 0 0 0 0 0 0.018 0 0 0 0 -0.0066 0.0935 -0.0272 0 0 0 0 0.0163 0 0 0 0 0 0.0171 0 0 0 0 0 0.018 0 0 0 0 -1.49012e-06 32.8433 7.15256e-05 8.34909 -1.06722e-06 -6.66939 -16.1366 -5.96046e-06 -2.38419e-05 67.9529 38.7652 -9.19781 -21.0722 -5.96046e-06 0 -6.32164e-06 6.83019e-06 76.1818 -26.1467 -2.98023e-05 0 -16.4824 0.335134 -20.7061 -0.0062 0.0497 0.0339 0 0 0 0 0.0215 0 0 0 0 0 0.022 0 0 0 0 0 0.017 0 0 0 0 0.0068 0.0873 0.0207 0 0 0 0 0.0267 0 0 0 0 0 0.0213 0 0 0 0 0 0.018 0 0 0 0 0.0067 0.0922 0.0055 0 0 0 0 0.0266 0 0 0 0 0 0.0228 0 0 0 0 0 0.015 0 0 0 0 0.0067 0.0925 -0.0113 0 0 0 0 0.0247 0 0 0 0 0 0.0221 0 0 0 0 0 0.018 0 0 0 0 0.0066 0.0935 -0.0272 0 0 0 0 0.0163 0 0 0 0 0 0.0171 0 0 0 0 0 0.018 0 0 0 0 -1.49012e-06 32.8433 7.15256e-05 -1.46084 15.2973 0.385491 1.49012e-06 25.8315 -4.76837e-05 1.01386e-05 -1.10991e-05 0 
-1.26604 24.3467 -241.79 1.75467 4.60381 -3.62049 7.43882 -6.50376 1.46711 -0.163028 7.25012 0.622057 3.72529e-06 -46.0067 4.76837e-05 -9.79113 -9.88764 -1.19164e-06 -1.49012e-06 -40.2473 -2.38419e-05 10.5102 0.17873 5.94643 -7.2604 -6.96745 2.07655 -7.9534 -8.68856 3.83943 -3.72529e-06 -46.2655 0 -0.215343 15.9284 7.21389e-07 4.47035e-06 -41.3935 -2.38419e-05 -20.1027 -10.9549 -13.5152 0 6.26315 -6.26311 0.629321 -6.33755 -0.760188 -1.49012e-06 32.8433 -9.53674e-05 -12.2284 1.13659e-05 6.6462 15.5838 2.38419e-05 4.76837e-05 -47.4236 27.5191 -6.75328 22.3079 -5.96046e-06 4.76837e-05 2.69739e-05 -1.8314e-06 -111.446 22.3969 -1.19209e-05 1.19209e-05 -8.34277 0.0737645 -8.87188 0.0062 0.0497 0.0339 0 0 0 0 0.0215 0 0 0 0 0 0.022 0 0 0 0 0 0.017 0 0 0 0 -0.0068 0.0873 0.0207 0 0 0 0 0.0267 0 0 0 0 0 0.0213 0 0 0 0 0 0.018 0 0 0 0 -0.0067 0.0922 0.0055 0 0 0 0 0.0266 0 0 0 0 0 0.0228 0 0 0 0 0 0.015 0 0 0 0 -0.0067 0.0925 -0.0113 0 0 0 0 0.0247 0 0 0 0 0 0.0221 0 0 0 0 0 0.018 0 0 0 0 -0.0066 0.0935 -0.0272 0 0 0 0 0.0163 0 0 0 0 0 0.0171 0 0 0 0 0 0.018 0 0 0 0 -1.49012e-06 32.8433 -9.53674e-05 8.54038 -2.56132e-06 -6.42161 -16.1264 1.19209e-05 0 67.9708 38.6548 -9.95179 -21.0201 1.19209e-05 -4.76837e-05 3.73277e-05 -1.70755e-06 76.8486 -26.1432 0 1.78814e-05 -18.9776 0.392225 -23.0685 -0.0062 0.0497 0.0339 0 0 0 0 0.0215 0 0 0 0 0 0.022 0 0 0 0 0 0.017 0 0 0 0 0.0068 0.0873 0.0207 0 0 0 0 0.0267 0 0 0 0 0 0.0213 0 0 0 0 0 0.018 0 0 0 0 0.0067 0.0922 0.0055 0 0 0 0 0.0266 0 0 0 0 0 0.0228 0 0 0 0 0 0.015 0 0 0 0 0.0067 0.0925 -0.0113 0 0 0 0 0.0247 0 0 0 0 0 0.0221 0 0 0 0 0 0.018 0 0 0 0 0.0066 0.0935 -0.0272 0 0 0 0 0.0163 0 0 0 0 0 0.0171 0 0 0 0 0 0.018 0 0 0 0 -1.49012e-06 32.8433 -9.53674e-05 -1.2698 15.0344 0.329438 0 25.9112 2.38419e-05 9.81839e-06 -1.28066e-05 4.26887e-07 
